HIERARCHY
ROOT root
{
	OFFSET 0.000000 0.000000 0.000000
	CHANNELS 6 Xposition Yposition Zposition Zrotation Yrotation Xrotation
	JOINT lhip
	{
		OFFSET 0.058581 -0.082280 -0.017664
		CHANNELS 3 Zrotation Yrotation Xrotation
		JOINT lknee
		{
			OFFSET 0.043451 -0.386469 0.008037
			CHANNELS 3 Zrotation Yrotation Xrotation
			JOINT lankle
			{
				OFFSET -0.014790 -0.426874 -0.037428
				CHANNELS 3 Zrotation Yrotation Xrotation
				JOINT ltoe
				{
					OFFSET 0.041054 -0.060286 0.122042
					CHANNELS 3 Zrotation Yrotation Xrotation
					End Site
					{
						OFFSET 0.000000 0.000000 0.000000
					}
				}
			}
		}
	}
	JOINT rhip
	{
		OFFSET -0.060310 -0.090513 -0.013543
		CHANNELS 3 Zrotation Yrotation Xrotation
		JOINT rknee
		{
			OFFSET -0.043257 -0.383688 -0.004843
			CHANNELS 3 Zrotation Yrotation Xrotation
			JOINT rankle
			{
				OFFSET 0.019056 -0.420046 -0.034562
				CHANNELS 3 Zrotation Yrotation Xrotation
				JOINT rtoe
				{
					OFFSET -0.034840 -0.062106 0.130323
					CHANNELS 3 Zrotation Yrotation Xrotation
					End Site
					{
						OFFSET 0.000000 0.000000 0.000000
					}
				}
			}
		}
	}
	JOINT lowerback
	{
		OFFSET 0.004439 0.124404 -0.038385
		CHANNELS 3 Zrotation Yrotation Xrotation
		JOINT upperback
		{
			OFFSET 0.004488 0.137956 0.026820
			CHANNELS 3 Zrotation Yrotation Xrotation
			JOINT chest
			{
				OFFSET -0.002265 0.056032 0.002855
				CHANNELS 3 Zrotation Yrotation Xrotation
				JOINT lowerneck
				{
					OFFSET -0.013390 0.211636 -0.033468
					CHANNELS 3 Zrotation Yrotation Xrotation
					JOINT upperneck
					{
						OFFSET 0.010113 0.088937 0.050410
						CHANNELS 3 Zrotation Yrotation Xrotation
						End Site
						{
							OFFSET 0.000000 0.000000 0.000000
						}
					}
				}
				JOINT lclavicle
				{
					OFFSET 0.071702 0.114000 -0.018898
					CHANNELS 3 Zrotation Yrotation Xrotation
					JOINT lshoulder
					{
						OFFSET 0.122921 0.045205 -0.019046
						CHANNELS 3 Zrotation Yrotation Xrotation
						JOINT lelbow
						{
							OFFSET 0.255332 -0.015649 -0.022946
							CHANNELS 3 Zrotation Yrotation Xrotation
							JOINT lwrist
							{
								OFFSET 0.265709 0.012698 -0.007375
								CHANNELS 3 Zrotation Yrotation Xrotation
								End Site
								{
									OFFSET 0.000000 0.000000 0.000000
								}
							}
						}
					}
				}
				JOINT rclavicle
				{
					OFFSET -0.082954 0.112472 -0.023707
					CHANNELS 3 Zrotation Yrotation Xrotation
					JOINT rshoulder
					{
						OFFSET -0.113228 0.046853 -0.008472
						CHANNELS 3 Zrotation Yrotation Xrotation
						JOINT relbow
						{
							OFFSET -0.260127 -0.014369 -0.031269
							CHANNELS 3 Zrotation Yrotation Xrotation
							JOINT rwrist
							{
								OFFSET -0.269108 0.006794 -0.006027
								CHANNELS 3 Zrotation Yrotation Xrotation
								End Site
								{
									OFFSET 0.000000 0.000000 0.000000
								}
							}
						}
					}
				}
			}
		}
	}
}
MOTION
Frames: 17
Frame Time: 0.033333
0.359811 0.189032 0.985575 105.507803 1.312813 100.449682 8.979604 -1.216071 -17.947174 -4.854478 -9.447499 12.906046 0.738833 7.761093 -5.805994 0.000000 -0.000000 0.000000 -4.539195 -8.051144 -11.310891 2.209307 -7.727703 12.836595 5.103789 -15.067284 -11.131263 0.000000 -0.000000 0.000000 -2.408736 7.185169 23.756145 1.116143 0.289610 2.999759 2.459254 0.257513 0.705579 -0.996266 5.456512 1.049951 6.112292 3.419005 -8.750424 -21.303363 7.871788 6.087962 -34.800496 7.714768 22.331096 -115.042584 -66.492519 127.352139 22.115660 -6.771410 -12.000082 23.305585 -5.001947 8.812107 38.548517 -17.518991 24.949339 147.215504 76.081240 154.385752 -20.542142 10.911096 -21.741832 
0.359585 0.189615 0.985775 105.479066 1.319422 100.982970 9.065616 -1.233398 -18.639842 -4.957254 -9.339866 12.988646 0.606474 7.790327 -5.504077 0.000000 -0.000000 0.000000 -4.494472 -8.164500 -11.737640 2.258666 -7.661306 12.461002 5.183595 -14.981536 -10.887097 0.000000 -0.000000 0.000000 -2.258617 7.115192 24.084332 1.019297 0.169523 2.543178 2.566050 0.232982 0.647727 -1.474833 5.382907 1.560233 6.280222 4.076082 -8.784895 -21.207005 7.847376 6.000311 -34.956739 8.045548 22.308145 -114.995245 -66.627774 127.310166 21.463298 -6.729628 -12.377224 22.567386 -4.944801 8.499156 38.743384 -17.502643 24.559252 143.857800 75.729588 151.231589 -18.401689 10.706928 -22.033274 
0.357548 0.189271 0.985842 105.476068 1.367060 101.808149 9.245199 -1.406931 -20.055330 -4.941792 -9.050547 13.508476 0.332039 7.605279 -4.864195 0.000000 -0.000000 0.000000 -4.346727 -8.228239 -12.963693 2.236491 -7.967011 12.724367 5.076337 -14.714610 -10.524404 0.000000 -0.000000 0.000000 -2.308622 7.114991 24.858013 1.065628 -0.116145 2.187369 2.634840 0.367064 0.915802 -1.854894 6.077044 2.564744 6.165480 4.337639 -9.809565 -21.160738 8.281012 5.572633 -35.005472 7.969744 22.341965 -115.313070 -66.498950 127.753255 21.004030 -6.444825 -13.065028 22.754080 -5.413276 7.960780 39.248426 -17.170130 24.415112 145.262626 75.934758 152.875788 -18.148985 10.689090 -21.737533 
0.352853 0.187734 0.985480 105.384265 1.304046 102.800925 9.288514 -1.294551 -22.048794 -5.076445 -8.633670 14.602468 0.045140 7.090634 -4.391653 0.000000 -0.000000 0.000000 -4.400210 -8.295845 -15.069589 2.182826 -8.310328 14.160335 5.257544 -14.098592 -10.310208 0.000000 -0.000000 0.000000 -2.675288 7.299654 26.404049 1.057729 -0.254487 2.781413 2.700171 0.528576 1.687226 -2.437283 6.598841 3.018090 5.899349 4.565149 -14.237591 -21.441274 9.071519 4.162092 -34.540032 7.531483 23.049659 -118.349691 -66.266760 130.910989 20.641117 -6.162337 -13.166646 23.699394 -5.904787 6.630862 38.211979 -16.896680 25.397203 148.506877 75.383545 155.951796 -16.046298 10.538314 -21.589882 
0.346403 0.185605 0.984029 105.041738 1.154776 103.264041 9.167328 -0.752551 -23.692298 -5.475595 -7.935420 16.058956 -0.225748 6.656215 -4.252728 0.000000 -0.000000 0.000000 -4.831096 -8.477195 -17.270256 2.193916 -8.664602 16.614615 5.602301 -13.062432 -10.267745 0.000000 -0.000000 0.000000 -2.709545 7.445980 29.464908 0.482963 -0.227790 4.148990 2.433581 0.584177 2.601242 -3.434362 7.332383 3.723240 5.528586 5.280679 -22.484706 -21.551035 9.950993 2.012632 -34.391099 7.739811 23.411781 -122.182317 -65.506102 135.154251 21.241213 -5.652508 -12.572322 23.831528 -6.126032 4.860932 39.257153 -16.852477 25.991227 149.726115 75.263068 157.485850 -17.186216 10.631635 -18.084157 
0.340475 0.182792 0.980390 104.594267 1.135765 103.685786 9.089885 0.139902 -25.313635 -5.977856 -6.957779 17.689553 -0.068102 6.478965 -4.264459 0.000000 -0.000000 0.000000 -5.124082 -8.559617 -19.166164 2.215015 -8.960982 18.640405 5.544193 -11.968449 -10.380602 0.000000 -0.000000 0.000000 -2.931472 7.468582 32.371532 -0.074906 -0.135082 6.126273 2.367438 0.691767 2.487302 -4.431016 8.128002 5.164500 4.886498 6.423122 -29.476290 -21.968459 10.907491 0.721035 -34.337386 8.653913 23.671058 -126.219780 -64.841627 139.161517 23.872488 -4.835480 -11.252678 23.432159 -6.259354 4.294856 40.767415 -16.776105 26.186124 149.342665 74.776525 155.812007 -21.488812 11.066104 -18.300248 
0.336540 0.179644 0.975269 104.483216 1.389496 104.162176 9.267256 0.603960 -26.782425 -6.111248 -6.799501 18.997174 0.263291 6.642312 -4.634502 0.000000 -0.000000 0.000000 -4.876757 -8.326910 -20.580223 2.321479 -8.952009 19.819317 5.128095 -11.921978 -11.085954 0.000000 -0.000000 0.000000 -3.169927 7.520943 34.323137 -0.049047 0.062702 6.825248 2.470497 0.489772 1.631461 -4.480463 7.682392 5.215162 5.232588 6.230696 -28.282302 -22.055073 11.157319 1.706253 -35.131686 9.623681 22.587278 -128.182913 -65.018534 141.609113 23.762731 -5.414072 -11.360738 22.975069 -6.248844 5.205679 41.652769 -17.142617 25.373363 151.707251 74.544560 158.762122 -20.088181 11.159544 -18.876285 
0.335755 0.178035 0.971069 104.642090 1.809105 104.382400 9.545880 0.610738 -27.873600 -5.992983 -7.064327 20.460618 0.732733 6.876404 -5.330224 0.000000 -0.000000 0.000000 -4.473071 -8.129009 -21.485091 2.461612 -9.019590 20.989413 4.664503 -12.239994 -11.749100 0.000000 -0.000000 0.000000 -3.027560 7.391843 34.583650 0.096446 0.117089 6.533672 2.466901 0.188541 1.526203 -3.779205 7.011919 5.259352 5.503859 5.822558 -25.546229 -21.635105 10.834439 2.716108 -36.063605 9.523781 21.642444 -126.746356 -65.641028 141.048719 23.098372 -5.976979 -11.752573 22.229672 -5.871588 6.190804 42.629821 -16.775219 24.604510 150.322927 75.056199 158.289220 -19.538755 11.003388 -19.792956 
0.338506 0.178434 0.969345 104.677962 2.155370 104.018058 9.752369 0.204571 -27.823095 -5.705704 -7.117666 21.496955 1.117744 7.229797 -5.979964 0.000000 -0.000000 0.000000 -4.261556 -7.838970 -21.389983 2.582463 -8.861306 21.798059 4.540404 -12.644417 -12.126229 0.000000 -0.000000 0.000000 -2.713859 6.996300 33.745778 0.166369 -0.165756 5.787932 2.201762 0.216065 1.533062 -3.042330 7.073882 4.901596 5.587171 5.397559 -21.836278 -20.835065 9.831469 3.911320 -36.719316 8.812008 20.871649 -122.701312 -66.349824 137.543374 21.987773 -7.172015 -11.857439 21.755198 -5.087154 7.336960 43.564560 -16.115767 24.118787 148.889531 75.930237 157.818860 -20.176254 11.259047 -19.751282 
0.344231 0.179506 0.969881 104.458611 2.267889 103.090020 9.820381 -0.291466 -26.525944 -5.563205 -7.258415 21.796923 1.434030 7.764066 -6.550762 0.000000 -0.000000 0.000000 -4.138635 -7.660450 -20.324927 2.575628 -8.255533 22.097225 4.541940 -13.225989 -12.452848 0.000000 -0.000000 0.000000 -2.630349 6.675644 32.647215 0.160683 -0.324297 4.539901 1.900018 0.252726 1.295965 -2.384636 7.134876 4.366931 5.689907 5.011541 -17.474673 -20.389630 9.036752 4.879065 -36.292886 8.186855 20.555770 -119.881435 -66.279537 134.682316 20.751763 -7.712032 -13.068729 21.484626 -4.579717 8.031851 43.634936 -15.743966 24.119953 144.584269 76.576886 154.279493 -20.736035 11.752321 -19.728146 
0.351521 0.180890 0.971447 104.108160 2.297898 101.923084 9.866385 -0.493690 -24.656675 -5.548864 -7.429004 21.721857 1.479198 8.158659 -7.414607 0.000000 -0.000000 0.000000 -4.043420 -7.525241 -18.731626 2.530659 -7.485560 22.067677 4.628113 -13.677424 -12.804350 0.000000 -0.000000 0.000000 -2.766653 6.640421 31.053609 0.325094 -0.258898 3.751313 1.763955 0.102006 1.018153 -2.056362 6.864902 3.683800 5.853146 4.984402 -13.914376 -20.509655 8.656137 5.242543 -35.802198 8.126200 20.756589 -118.661505 -66.291236 132.992433 19.477204 -7.783951 -14.083789 21.446586 -4.662327 7.802638 43.264736 -16.036206 24.346486 147.241589 76.813274 156.735537 -17.077066 11.026024 -19.057436 
0.358123 0.182203 0.973601 103.821882 2.247137 100.733556 9.848879 -0.337999 -22.801200 -5.690696 -7.647428 21.589606 1.391492 8.265909 -7.552945 0.000000 -0.000000 0.000000 -4.091415 -7.299417 -16.946915 2.420721 -7.067965 21.787525 4.679595 -14.014461 -13.027501 0.000000 -0.000000 0.000000 -3.049434 6.699802 29.306917 0.531330 -0.170266 3.648967 1.835728 0.147670 0.961764 -1.641787 6.803393 2.971538 5.797382 4.652180 -11.969824 -20.529699 8.589068 5.587069 -35.957327 7.854160 20.740879 -117.456862 -66.504586 131.810313 18.997709 -7.777990 -13.999869 21.763415 -5.080753 7.596842 42.564166 -15.987848 24.190299 145.610686 76.927329 155.170778 -16.714034 11.042382 -19.570691 
0.363048 0.183477 0.975936 103.811807 2.116548 99.985629 9.780048 -0.429310 -21.594085 -5.866648 -7.845675 21.427227 1.393958 8.383753 -7.388230 0.000000 -0.000000 0.000000 -4.184890 -7.215085 -15.591365 2.300929 -6.974143 21.318698 4.690932 -14.330914 -13.043851 0.000000 -0.000000 0.000000 -3.033552 6.551261 28.073303 0.517672 -0.088524 3.065800 1.827734 0.098469 1.136321 -1.450516 6.721276 2.649118 5.728567 4.583913 -11.234399 -20.599848 8.846808 5.444467 -35.895814 7.841765 20.886632 -116.280722 -66.347927 130.328518 19.285249 -7.522299 -13.830850 21.847630 -5.400327 7.481920 42.382866 -16.103126 24.404662 143.866383 76.894613 152.449536 -18.342664 11.104179 -19.552995 
0.366744 0.184128 0.977815 104.204814 2.044231 99.596701 9.726874 -0.695590 -20.732040 -5.850350 -8.095821 20.956685 1.361540 8.433432 -7.419628 0.000000 -0.000000 0.000000 -4.106959 -7.357734 -14.550916 2.163902 -7.021909 20.744713 4.648168 -14.534961 -13.046068 0.000000 -0.000000 0.000000 -2.947672 6.419512 26.795180 0.702342 -0.136280 2.949105 1.838232 0.100452 1.186611 -1.393263 6.467782 2.829269 5.812583 4.250534 -11.249912 -20.778412 8.991787 5.472978 -35.726317 7.842939 21.051736 -115.790558 -66.409738 129.847766 19.335746 -7.382060 -14.066165 22.171069 -5.582118 7.416537 41.942239 -16.298333 24.442923 142.324906 76.906605 151.240547 -18.133344 11.132979 -19.663923 
0.369193 0.184685 0.978874 104.536321 1.960767 99.313912 9.575668 -0.773239 -19.936907 -5.763198 -8.398739 20.269117 1.346674 8.412604 -7.699496 0.000000 -0.000000 0.000000 -4.130429 -7.508697 -13.631460 2.140586 -7.151848 20.049689 4.571422 -14.613842 -13.032562 0.000000 -0.000000 0.000000 -2.854052 6.451361 25.588031 0.914322 -0.254722 3.532361 1.866164 0.113075 1.054284 -1.382928 6.229337 3.277788 5.795353 4.211754 -11.478924 -20.975509 8.886782 5.495768 -35.589061 7.976122 21.415364 -117.042245 -66.537740 130.843403 19.461297 -6.646428 -13.492955 22.404994 -5.465283 7.305501 41.667456 -16.560979 24.446475 146.464721 76.677235 155.133046 -16.298628 10.516066 -21.726599 
0.370394 0.185033 0.979384 104.789232 1.833591 99.142880 9.432540 -0.801142 -19.393518 -5.776324 -8.600745 19.651567 1.336627 8.315845 -7.904597 0.000000 -0.000000 0.000000 -4.207629 -7.679212 -12.962293 2.112063 -7.215685 19.415005 4.524400 -14.648656 -13.011350 0.000000 -0.000000 0.000000 -2.764740 6.519635 24.797248 1.017679 -0.319532 3.980809 1.854044 0.073666 0.989681 -1.364119 6.005344 3.471806 5.855878 4.209541 -11.356717 -21.036874 8.713691 5.591567 -35.503314 8.026358 21.572675 -117.009348 -66.725178 130.616999 19.417692 -6.720304 -13.365801 22.455301 -5.246096 7.365890 41.589229 -16.508563 24.468180 147.354817 76.836037 155.892670 -14.491787 10.442790 -21.910956 
0.370774 0.184893 0.979814 104.932594 1.752005 99.038869 9.408364 -0.682967 -18.972243 -5.892878 -8.702560 19.101499 1.413024 8.272639 -7.890894 0.000000 -0.000000 0.000000 -4.237281 -7.796458 -12.526705 2.108760 -7.236946 18.919933 4.428941 -14.688237 -12.981917 0.000000 -0.000000 0.000000 -2.743398 6.500630 24.419169 1.025230 -0.333769 4.260999 1.812873 0.114560 0.782511 -1.269669 5.970227 3.733816 5.931592 4.257120 -11.301864 -21.080781 8.531206 5.651949 -35.294930 8.076801 21.599977 -116.807937 -66.614708 130.215484 20.057399 -6.514694 -13.050266 22.443074 -4.944009 7.703992 41.764933 -16.472258 24.440928 148.644604 77.094806 156.923828 -15.713191 10.555544 -21.627247 
